<svg xmlns="http://www.w3.org/2000/svg" width="40" height="40" viewBox="0 0 40 40">
  <g id="Group_1" data-name="Group 1" transform="translate(-292 -1482)">
    <g id="Ellipse_3" data-name="Ellipse 3" transform="translate(292 1482)" fill="none" stroke="#000" stroke-width="1">
      <circle cx="20" cy="20" r="20" stroke="none"/>
      <circle cx="20" cy="20" r="19.5" fill="none"/>
    </g>
    <path id="file_download_FILL0_wght700_GRAD0_opsz48" d="M8.322,26.83A2.647,2.647,0,0,1,6.361,26a2.72,2.72,0,0,1-.811-1.976V18.486H8.322v5.543H24.51V18.486h2.772v5.543A2.7,2.7,0,0,1,26.456,26a2.662,2.662,0,0,1-1.946.826Zm8.109-6.546L9.678,13.561l2.005-1.976,3.361,3.391V4.45h2.772V14.977l3.361-3.391,2.005,1.976Z" transform="translate(295.584 1486.36)" fill="#fff"/>
  </g>
</svg>
